<?xml version="1.0" encoding="utf-8"?>
<!-- Generator: Adobe Illustrator 16.0.0, SVG Export Plug-In . SVG Version: 6.00 Build 0)  -->
<!DOCTYPE svg PUBLIC "-//W3C//DTD SVG 1.1//EN" "http://www.w3.org/Graphics/SVG/1.1/DTD/svg11.dtd">
<svg version="1.1" id="Capa_1" xmlns="http://www.w3.org/2000/svg" xmlns:xlink="http://www.w3.org/1999/xlink" x="0px" y="0px"
	 width="947.1px" height="947.101px" viewBox="0 0 947.1 947.101" enable-background="new 0 0 947.1 947.101" xml:space="preserve">
<g>
	<g>
		<path fill="#054F7D" d="M901.178,714.9H795.979l-97.603-71.301c-9.5-6.898-22.8-4.898-29.7,4.602
			c-6.897,9.5-4.897,22.799,4.603,29.699l50.397,37h-33.6c-7.2,0-12.8,6.6-11.5,13.699l31,180.199c1,5.602,5.8,9.701,11.5,9.701
			h74.5h75.5c5.7,0,10.6-4.1,11.5-9.801l30-180.199C913.878,721.4,908.378,714.9,901.178,714.9z M794.878,777.9
			c-9,1.398-17.398-4.801-18.8-13.801c-0.5-3.5,0.1-6.898,1.6-9.898c2.302-4.602,6.802-8.102,12.302-8.9
			c6.101-0.896,12,1.604,15.5,6.199c1.698,2.201,2.898,4.801,3.301,7.701C810.079,768.101,803.979,776.5,794.878,777.9z"/>
		<path fill="#054F7D" d="M361.779,222.4c24.1,0,50.6-13.4,50.6-13.4c-12.5-7.3-18.897-21.8-22-36.4c13.103,21.7,35.8,36,61.5,36
			s48.4-14.3,61.5-36c-3.1,14.7-9.5,29.1-22,36.4c0,0,26.5,13.4,50.603,13.4c15.6,0,30.3-5.6,36.1-24.3c0.9-2.8-0.3-5.8-2.9-7.1
			c-8.697-4.7-27.8-18.2-27.8-46c0-36,9-145-95.5-145s-95.5,109-95.5,145c0,27.8-19.1,41.3-27.8,46c-2.6,1.4-3.8,4.4-2.9,7.1
			C331.479,216.7,346.178,222.4,361.779,222.4z"/>
		<path fill="#054F7D" d="M691.479,544c15.3-11.398,18.5-33.1,7.1-48.398l-165.7-222.799c-35.3-47-105.6-44.9-149.5-12.2
			c-0.1,0.1-137.3,102.2-137.3,102.2l-82.9-45.9V396l68.9,38.2c5.2,2.898,11,4.3,16.8,4.3c7.3,0,14.6-2.3,20.7-6.8l78.2-58.2v85.9
			l-82.8,231c-2.9,7.699,2.9,16,11.1,16h71.7v178.9c0,25.699,20.8,46.5,46.5,46.5c25.698,0,46.5-20.801,46.5-46.5v-179.1h22.397
			v178.896c0,25.699,20.801,46.5,46.5,46.5c25.7,0,46.5-20.801,46.5-46.5V706.201h71.7c8.3,0,14-8.201,11.101-16l-82.801-231v-39.5
			L643.279,536.8c6.8,9.104,17.198,13.9,27.8,13.9C678.079,550.8,685.279,548.601,691.479,544z"/>
		<path fill="#054F7D" d="M144.179,693V385.4v-26.2v-301c0-11-9-20-20-20s-20,9-20,20v632.5c5-1,10.2-1.5,15.3-1.5
			C127.878,689.201,136.279,690.5,144.179,693z"/>
		<path fill="#054F7D" d="M269.979,922.601c-33-16.5-59.9-48.602-59.9-91.699c0-43.102-25.3-61.801-35.3-67.5
			c-12.1-4.701-26.2-8-41.4-9.301c-4.5-0.4-9.2-0.602-13.9-0.602c-2,0-4.1,0-6.1,0.102c-21.8,0.801-41.9,5.699-57.5,13.398
			c-23.6,15.701-21.5,49.4-21.5,49.4c0,106.896,80.3,130.697,151.8,130.697c31.5,0,61.3-4.6,81.7-8.801
			C275.779,936.8,277.179,926.201,269.979,922.601z"/>
		<path fill="#054F7D" d="M100.378,733.5c4.1-0.398,8.3-0.699,12.5-0.799c2.2-0.102,4.4-0.102,6.6-0.102
			c5.2,0,10.3,0.199,15.3,0.602c4.2,0.299,8.4,0.799,12.5,1.398c3.5,0.5,6.9,1.102,10.3,1.801c2.6,0.6,5.2,1.199,7.8,1.801
			c-1.4-3-2.9-5.801-4.6-8.301c-2.3-3.4-4.8-6.4-7.4-8.801c-2-1.801-4.1-3.301-6.3-4.398c-0.9-0.5-1.9-0.9-2.8-1.301
			c-7.8-3.4-16.2-5.199-24.7-5.199c-5.2,0-10.3,0.699-15.3,2c-3.2,0.799-6.4,1.898-9.5,3.299c-0.9,0.4-1.8,0.801-2.7,1.201
			c-2.2,1.1-4.4,2.699-6.5,4.6c-4.6,4.199-8.7,10.104-11.8,16.9c5.2-1.301,10.6-2.5,16.2-3.4
			C93.378,734.3,96.779,733.8,100.378,733.5z"/>
	</g>
</g>
</svg>
