<?xml version="1.0" encoding="utf-8"?>
<!-- Generator: Adobe Illustrator 16.0.0, SVG Export Plug-In . SVG Version: 6.00 Build 0)  -->
<!DOCTYPE svg PUBLIC "-//W3C//DTD SVG 1.1//EN" "http://www.w3.org/Graphics/SVG/1.1/DTD/svg11.dtd">
<svg version="1.1" id="Capa_1" xmlns="http://www.w3.org/2000/svg" xmlns:xlink="http://www.w3.org/1999/xlink" x="0px" y="0px"
	 width="947.1px" height="947.101px" viewBox="0 0 947.1 947.101" enable-background="new 0 0 947.1 947.101" xml:space="preserve">
<g>
	<g>
		<path fill="#B1EDE4" d="M864.953,649.093c14.22-7.111,31.996-1.187,39.108,14.222c7.107,14.219,1.186,31.995-13.037,39.104
			c-59.252,28.442-218.048,105.471-246.49,119.691c-29.623,14.22-39.106,17.775-72.288,10.666
			c-47.401-9.481-212.122-52.143-238.193-60.438c-15.406-4.742-27.257-1.187-48.587,9.479
			c-15.406,7.111-88.879,42.663-119.69,58.068c-7.11,3.556-15.406,0-18.961-7.109L80.452,696.496c-3.556-7.111,0-15.406,7.11-18.962
			c63.993-24.885,122.06-49.771,167.092-68.732c23.7-9.48,74.658-34.366,123.245-17.775
			c34.366,11.851,218.049,85.323,245.305,94.803c15.405,4.742,23.702,22.517,17.776,37.924c-4.739,15.404-22.516,23.7-37.921,17.774
			c-43.848-15.405-62.81-21.33-80.587-27.256c-14.219-4.74-24.884,2.369-28.438,10.665c-3.556,10.666,0,24.886,13.034,29.626
			c26.074,9.481,63.996,22.516,90.065,29.625c21.331,5.927,58.065-3.553,74.656-29.625c10.666-17.775,16.591-20.145,24.889-23.7
			C714.452,722.566,845.991,658.573,864.953,649.093z"/>
	</g>
	<path fill="#B1EDE4" d="M99.413,871.881l15.405-7.109c9.481-4.739,14.22-16.591,9.481-26.07L65.046,709.531
		c-4.74-9.481-16.591-14.221-26.071-9.481l-15.406,7.112c-9.48,4.738-14.22,16.588-9.48,26.069l59.253,129.171
		C78.082,873.068,89.932,876.624,99.413,871.881z"/>
	<g>
		<path fill="#B1EDE4" d="M909.986,542.439H163.405c-14.22,0-24.886-11.851-24.886-24.887v-22.516
			c0-14.221,11.851-24.887,24.886-24.887h746.582c14.22,0,24.885,11.852,24.885,24.887v22.516
			C934.871,530.588,924.206,542.439,909.986,542.439z"/>
		<path fill="#B1EDE4" d="M931.317,444.079C902.875,263.952,736.968,125.3,537.883,125.3
			c-200.275,0-364.998,138.651-393.438,318.778H931.317z"/>
		<circle fill="#B1EDE4" cx="536.696" cy="105.155" r="31.997"/>
	</g>
</g>
</svg>
