<?xml version="1.0" encoding="utf-8"?>
<!-- Generator: Adobe Illustrator 16.0.0, SVG Export Plug-In . SVG Version: 6.00 Build 0)  -->
<!DOCTYPE svg PUBLIC "-//W3C//DTD SVG 1.1//EN" "http://www.w3.org/Graphics/SVG/1.1/DTD/svg11.dtd">
<svg version="1.1" id="Capa_1" xmlns="http://www.w3.org/2000/svg" xmlns:xlink="http://www.w3.org/1999/xlink" x="0px" y="0px"
	 width="947.1px" height="947.101px" viewBox="0 0 947.1 947.101" enable-background="new 0 0 947.1 947.101" xml:space="preserve">
<g>
	<path fill="#F5A7BB" d="M470.581,426.813c106.618,0,193.354-86.735,193.354-193.342c0-106.618-86.745-193.354-193.354-193.354
		c-106.617,0-193.364,86.736-193.364,193.354C277.217,340.079,363.964,426.813,470.581,426.813z"/>
	<path fill="#F5A7BB" d="M140.992,580.783c-0.489-16.967-15.827-30.596-34.782-30.596c-19.25,0-34.864,14.066-34.864,31.42v67.689
		h21.613C106.658,625.15,122.71,602.212,140.992,580.783z"/>
	<path fill="#F5A7BB" d="M875.764,659.513v-67.691c0-17.354-15.612-31.428-34.874-31.428c-15.776,0-28.946,9.512-33.253,22.455
		c20.063,23.805,37.246,49.553,51.679,76.664H875.764z"/>
	<path fill="#F5A7BB" d="M705.938,845.554c0-8.729,2.148-16.949,5.798-24.281h-92.31c-2.964-8.514-6.529-16.746-10.837-24.516
		l97.786-86.777c2.232-28.172,25.588-50.467,54.297-50.467h45.363h18.526c-5.784-9.869-11.966-19.492-18.526-28.813
		c-9.122-12.957-18.91-25.412-29.453-37.197c-0.488-0.621-0.846-1.303-1.384-1.904c-0.472-0.539-1.039-0.916-1.521-1.414
		c-74.411-81.482-181.447-132.693-300.236-132.693c-118.736,0-225.731,51.171-300.133,132.609c-0.52,0.541-1.121,0.939-1.619,1.498
		c-0.5,0.561-0.835,1.213-1.304,1.814c-10.48,11.713-20.218,24.107-29.302,36.979c-4.349,6.162-8.474,12.508-12.487,18.904h12.487
		h45.364c30.179,0,54.734,24.559,54.734,54.744c0,2.07-0.275,4.064-0.499,6.072l93.896,83.344
		c-5.144,8.771-9.452,18.068-12.843,27.816h-82.571c1.212,4.512,2.017,9.188,2.017,14.076c0,30.18-24.556,54.736-54.734,54.736
		H75.807c7.833,10.205,20.025,16.885,33.876,16.885h727.541c0.05,0.014,0.08,0.014,0.123,0.014c0.04,0,0.07,0,0.091-0.014
		c8.391,0,16.164-2.502,22.773-6.67h-99.539C730.495,900.3,705.938,875.746,705.938,845.554z M470.581,715.316
		c-26.786,0-51.995,6.725-74.086,18.508L266.879,618.794c55.866-47.115,127.935-75.605,206.563-75.605
		c78.631,0,150.7,28.49,206.567,75.605L548.16,735.822C525.245,722.826,498.806,715.316,470.581,715.316z"/>
	<path fill="#F5A7BB" d="M215.72,835.349c0-5.133-1.436-9.879-3.759-14.076c-4.99-9.023-14.473-15.195-25.513-15.195h-28.56H98.683
		v-7.559h60.683h27.073c7.649,0,14.554-2.994,19.759-7.799c5.805-5.352,9.513-12.947,9.513-21.471
		c0-8.027-3.239-15.289-8.474-20.586c-5.307-5.357-12.66-8.699-20.798-8.699h-8.729h-46.811H98.683v-6.648h37.665h44.183h5.908
		c16.174,0,29.272-13.111,29.272-29.275c0-7.635-2.995-14.533-7.792-19.746c-5.347-5.818-12.955-9.533-21.479-9.533h-45.364h-27.165
		H79.636h-8.29H59.603c-1.018,0-1.956,0.203-2.943,0.305c-1.558-0.186-3.096-0.305-4.583-0.305
		c-46.148,0-44.224,94.479-44.224,94.479s-0.102,95.375,44.224,95.375c1.487,0,3.025-0.125,4.583-0.299
		c0.987,0.125,1.925,0.299,2.943,0.299h7.272h119.563C202.612,864.625,215.72,851.523,215.72,835.349z"/>
	<path fill="#F5A7BB" d="M895.032,684.976c-1.487,0-3.034,0.121-4.571,0.295c-0.989-0.1-1.936-0.295-2.954-0.295h-11.733h-4.033
		h-33.487h-32.218h-45.363c-6.557,0-12.549,2.24-17.424,5.875c-7.151,5.34-11.837,13.791-11.837,23.406
		c0,16.154,13.086,29.264,29.261,29.264h10.045h40.048h37.663v6.65h-32.217h-42.827h-12.712c-6.711,0-12.833,2.342-17.762,6.152
		c-6.958,5.346-11.499,13.666-11.499,23.121c0,4,0.815,7.799,2.263,11.262c4.407,10.572,14.827,18.018,26.998,18.018h28.795h58.961
		v7.547h-57.721h-30.035c-6.059,0-11.68,1.844-16.345,4.992c-7.793,5.266-12.916,14.176-12.916,24.281
		c0,16.176,13.086,29.281,29.261,29.281h118.106h8.729c1.019,0,1.965-0.189,2.954-0.303c1.537,0.184,3.098,0.303,4.571,0.303
		c44.318,0,44.215-95.381,44.215-95.381S941.182,684.976,895.032,684.976z"/>
</g>
</svg>
