<?xml version="1.0" encoding="utf-8"?>
<!-- Generator: Adobe Illustrator 16.0.0, SVG Export Plug-In . SVG Version: 6.00 Build 0)  -->
<!DOCTYPE svg PUBLIC "-//W3C//DTD SVG 1.1//EN" "http://www.w3.org/Graphics/SVG/1.1/DTD/svg11.dtd">
<svg version="1.1" id="Capa_1" xmlns="http://www.w3.org/2000/svg" xmlns:xlink="http://www.w3.org/1999/xlink" x="0px" y="0px"
	 width="947.1px" height="947.101px" viewBox="0 0 947.1 947.101" enable-background="new 0 0 947.1 947.101" xml:space="preserve">
<g>
	<path fill="#00A669" d="M315.221,238.382c0.635-0.041,63.762-4.004,89.779,15.987c0.089,0.068,0.188,0.116,0.278,0.179
		c18.543,15.425,42.354,24.719,68.301,24.719c25.209,0,48.791-8.922,67.37-23.993c0.173-0.108,0.349-0.197,0.515-0.318
		c28.921-21.298,98.754-16.623,99.447-16.575c4.027,0.278,7.604-2.531,8.281-6.503c11.336-66.828-14.131-124.386-73.658-166.444
		c-43.501-30.738-89.506-42.36-92.819-43.174c-4.229-1.148-12.055-2.365-17.122-2.365c-15.504,0-25.725,7.213-33.05,14.789
		c-4.833-1.667-9.856-2.524-15.01-2.524c-12.242,0-23.771,4.671-32.506,13.163c-2.81,2.396-26.797,23.276-48.241,55.442
		c-30.014,45.02-40.275,90.58-29.676,131.756C308.05,236.17,311.456,238.648,315.221,238.382z M382.289,172.307
		c0-25.104,10.237-48.804,28.258-66.004c27.351,26.214,84.325,74.056,150.83,91.053c-11.044,38.763-46.916,66.243-87.798,66.243
		C423.242,263.599,382.289,222.645,382.289,172.307z M395.347,57.114c0.159-0.133,0.311-0.271,0.456-0.415
		c5.811-5.722,13.527-8.872,21.729-8.872c4.736,0,9.329,1.084,13.644,3.223c3.291,1.631,7.154,0.717,9.431-1.96l0.032-0.002
		c8.116-9.607,15.347-13.524,24.953-13.524c3.188,0,9.786,0.925,13.076,1.834c0.083,0.023,0.169,0.045,0.252,0.064
		c0.453,0.109,45.807,11.254,87.575,40.768c52.966,37.423,75.917,85.901,68.284,144.168c-13.58-0.463-43.642-0.537-70.168,6.034
		c5.269-8.497,9.37-17.818,12.101-27.756c8.999,1.59,18.136,2.584,27.37,2.825c0.07,0.002,0.139,0.004,0.207,0.004
		c4.233,0,7.717-3.373,7.83-7.63c0.112-4.324-3.301-7.922-7.627-8.037c-103.15-2.706-198.477-108.443-199.426-109.511
		c-2.879-3.231-7.829-3.519-11.062-0.644c-3.23,2.876-3.521,7.825-0.646,11.059c0.524,0.592,2.62,2.92,6.085,6.512
		c-20.936,20.128-32.824,47.774-32.824,77.054c0,20.356,5.722,39.4,15.632,55.614c-23.514-5.706-49.386-5.812-61.373-5.466
		C303.618,135.586,394.408,57.904,395.347,57.114z"/>
	<path fill="#00A669" d="M683.835,677.07L634.03,507.187l39.332-55.127c0.02-0.026,0.039-0.055,0.057-0.081
		c0.012-0.015,0.021-0.03,0.029-0.046c15.01-21.11,9.994-50.537-11.193-65.603l-38.426-27.191c-0.182-0.127,0.188,0.112,0,0
		c-9.719-28.492-37.021-49.207-68.764-49.207c-0.756,0-1.506,0.034-2.256,0.057c-22.435-16.442-50.437-25.489-79.231-25.489
		c-31.235,0-61.935,10.794-84.819,29.67c-3.653-0.89-7.389-1.354-11.151-1.354c-20.262,0-38.229,12.839-44.717,31.961
		l-41.102,121.731c-6.875,20.261,0.843,41.994,17.47,53.689l-45.993,156.871c-0.694,2.369-0.232,4.928,1.248,6.9
		c1.479,1.977,3.803,3.141,6.27,3.141h85.247v186.434c0,29.59,24.075,53.664,53.665,53.664c29.589,0,53.661-24.074,53.661-53.664
		V687.111h20.38v186.432c0,29.59,24.074,53.664,53.665,53.664c29.587,0,53.659-24.074,53.659-53.664V687.111h85.248
		c2.468,0,4.793-1.164,6.271-3.139C684.067,681.996,684.528,679.437,683.835,677.07z M655.03,634.513H292.075l12.928-44.088h54.673
		c4.329,0,7.835-3.51,7.835-7.836c0-4.324-3.506-7.834-7.835-7.834h-50.079l13.985-47.699l99.634,33.637
		c4.939,1.676,10.064,2.527,15.236,2.527c20.141,0,38.021-12.807,44.489-31.865c2.613-7.691,3.185-15.752,1.775-23.539l42.592-8.941
		c-2.03,6.84-2.488,14.117-1.243,21.375c2.134,12.426,8.96,23.285,19.221,30.578c8.038,5.715,17.438,8.699,27.09,8.699
		c2.662,0,5.344-0.23,8.023-0.689c12.362-2.119,23.188-8.939,30.475-19.191l11.586-16.242L655.03,634.513z M498.665,427.522
		l-32.027-7.891l17.982-20.931C487.114,409.414,491.991,419.214,498.665,427.522z M449.589,415.432l-25.65-6.319l38.642-8.8
		L449.589,415.432z M406.642,420.984l128.099,30.723c6.454,1.893,13.271,2.928,20.33,2.928c12.605,0,24.47-3.25,34.803-8.943
		c-3.814,15.221-15.998,27.401-32.041,30.771l-78.524,16.482c-5.691-10.139-14.734-17.744-25.81-21.504l-57.356-19.36
		L406.642,420.984z M653.187,399.107c14.082,10.013,17.47,29.526,7.609,43.586c-0.139,0.181-0.27,0.363-0.393,0.553l-62.295,87.314
		c-4.879,6.865-12.109,11.424-20.359,12.84c-8.248,1.41-16.554-0.482-23.389-5.342c-6.861-4.875-11.427-12.143-12.854-20.457
		c-1.376-8.006,0.354-16.029,4.825-22.719l14.715-3.09c27.396-5.748,46.631-30.206,45.734-58.155
		c-0.008-0.249-0.068-0.481-0.099-0.726c12.813-13.061,20.734-30.934,20.734-50.632c0-0.49-0.027-0.975-0.039-1.461L653.187,399.107
		z M611.751,382.283c0,31.256-25.425,56.683-56.68,56.683c-31.258,0-56.684-25.427-56.684-56.683
		c0-31.256,25.426-56.683,56.684-56.683C586.326,325.6,611.751,351.027,611.751,382.283z M530.28,314.308
		c-26.937,9.854-46.41,35.289-47.496,65.332l-67.363,15.344l6.729-19.926c6.845-20.175-0.775-41.809-17.258-53.537
		c19.313-13.657,43.779-21.352,68.69-21.352C493.31,300.167,513.187,305.214,530.28,314.308z M306.635,471.534l41.102-121.732
		c4.325-12.748,16.332-21.313,29.875-21.313c3.445,0,6.865,0.568,10.162,1.687c16.347,5.548,25.112,23.425,19.537,39.862
		l-28.519,84.456c-0.666,1.969-0.52,4.122,0.401,5.982c0.922,1.862,2.546,3.281,4.515,3.947l64.768,21.862
		c7.944,2.693,14.361,8.352,18.072,15.926c3.712,7.576,4.266,16.139,1.558,24.115c-4.313,12.699-16.229,21.229-29.652,21.229
		c-3.453,0-6.885-0.57-10.211-1.697l-101.675-34.324c-0.135-0.051-0.271-0.1-0.404-0.141c-0.07-0.021-0.127-0.039-0.188-0.059
		C309.753,505.707,301.08,487.908,306.635,471.534z M447.695,873.542c0,18.354-13.084,33.709-30.415,37.23V810.242
		c0-4.326-3.506-7.832-7.834-7.832s-7.834,3.506-7.834,7.832V910.65c-17.074-3.723-29.908-18.934-29.908-37.107V687.111h75.991
		V873.542L447.695,873.542z M575.401,873.542c0,14.389-8.044,26.938-19.871,33.385v-139.08c0-4.328-3.504-7.836-7.832-7.836
		s-7.836,3.508-7.836,7.836v141.936c0,0.557,0.061,1.096,0.173,1.621c-0.872,0.063-1.738,0.133-2.628,0.133
		c-20.952,0-37.998-17.045-37.998-37.994V687.111h75.992V873.542L575.401,873.542z M281.25,671.439l6.231-21.258h372.143
		l6.232,21.258H281.25z"/>
</g>
</svg>
