<?xml version="1.0" encoding="utf-8"?>
<!-- Generator: Adobe Illustrator 16.0.0, SVG Export Plug-In . SVG Version: 6.00 Build 0)  -->
<!DOCTYPE svg PUBLIC "-//W3C//DTD SVG 1.1//EN" "http://www.w3.org/Graphics/SVG/1.1/DTD/svg11.dtd">
<svg version="1.1" id="Capa_1" xmlns="http://www.w3.org/2000/svg" xmlns:xlink="http://www.w3.org/1999/xlink" x="0px" y="0px"
	 width="947.1px" height="947.101px" viewBox="0 0 947.1 947.101" enable-background="new 0 0 947.1 947.101" xml:space="preserve">
<g>
	<g>
		<path fill="#6D6E71" d="M864.953,649.093c14.22-7.111,31.996-1.188,39.108,14.223c7.106,14.219,1.186,31.994-13.037,39.104
			c-59.252,28.441-218.049,105.471-246.49,119.691c-29.623,14.219-39.106,17.773-72.288,10.666
			c-47.401-9.482-212.122-52.145-238.193-60.439c-15.405-4.742-27.257-1.186-48.587,9.48c-15.406,7.109-88.879,42.662-119.69,58.066
			c-7.11,3.557-15.406,0-18.961-7.107L80.452,696.496c-3.556-7.111,0-15.406,7.11-18.961
			c63.993-24.885,122.06-49.771,167.092-68.732c23.7-9.48,74.658-34.367,123.246-17.775
			c34.365,11.852,218.049,85.322,245.305,94.803c15.405,4.742,23.702,22.518,17.775,37.924
			c-4.738,15.404-22.516,23.701-37.921,17.775c-43.848-15.406-62.81-21.33-80.587-27.258c-14.219-4.738-24.884,2.369-28.438,10.666
			c-3.557,10.666,0,24.887,13.034,29.625c26.073,9.482,63.995,22.518,90.064,29.625c21.331,5.928,58.065-3.553,74.656-29.625
			c10.666-17.773,16.591-20.145,24.889-23.699C714.452,722.566,845.991,658.574,864.953,649.093z"/>
	</g>
	<path fill="#6D6E71" d="M99.413,871.88l15.405-7.109c9.481-4.738,14.22-16.59,9.481-26.068L65.046,709.531
		c-4.74-9.48-16.591-14.221-26.071-9.48l-15.406,7.111c-9.48,4.738-14.22,16.588-9.48,26.068l59.253,129.172
		C78.082,873.068,89.932,876.625,99.413,871.88z"/>
	<g>
		<path fill="#6D6E71" d="M909.986,542.439H163.405c-14.22,0-24.886-11.852-24.886-24.887v-22.516
			c0-14.221,11.851-24.887,24.886-24.887h746.583c14.22,0,24.885,11.852,24.885,24.887v22.516
			C934.871,530.587,924.206,542.439,909.986,542.439z"/>
		<path fill="#6D6E71" d="M931.317,444.079C902.875,263.952,736.968,125.3,537.883,125.3
			c-200.274,0-364.998,138.651-393.438,318.778L931.317,444.079L931.317,444.079z"/>
		<circle fill="#6D6E71" cx="536.696" cy="105.155" r="31.997"/>
	</g>
</g>
</svg>
